<?xml version="1.0" encoding="UTF-8" standalone="no"?>
<!-- Created with Inkscape (http://www.inkscape.org/) -->

<svg
   xmlns:dc="http://purl.org/dc/elements/1.1/"
   xmlns:cc="http://creativecommons.org/ns#"
   xmlns:rdf="http://www.w3.org/1999/02/22-rdf-syntax-ns#"
   xmlns:svg="http://www.w3.org/2000/svg"
   xmlns="http://www.w3.org/2000/svg"
   xmlns:sodipodi="http://sodipodi.sourceforge.net/DTD/sodipodi-0.dtd"
   xmlns:inkscape="http://www.inkscape.org/namespaces/inkscape"
   width="210mm"
   height="297mm"
   viewBox="0 0 744.09448819 1052.3622047"
   id="svg2"
   version="1.1"
   inkscape:version="0.91 r13725"
   sodipodi:docname="logo.svg">
  <defs
     id="defs4" />
  <sodipodi:namedview
     id="base"
     pagecolor="#ffffff"
     bordercolor="#666666"
     borderopacity="1.0"
     inkscape:pageopacity="0.0"
     inkscape:pageshadow="2"
     inkscape:zoom="1.979899"
     inkscape:cx="326.82586"
     inkscape:cy="892.49142"
     inkscape:document-units="px"
     inkscape:current-layer="layer1"
     showgrid="false"
     inkscape:window-width="1920"
     inkscape:window-height="1036"
     inkscape:window-x="1920"
     inkscape:window-y="0"
     inkscape:window-maximized="1" />
  <metadata
     id="metadata7">
    <rdf:RDF>
      <cc:Work
         rdf:about="">
        <dc:format>image/svg+xml</dc:format>
        <dc:type
           rdf:resource="http://purl.org/dc/dcmitype/StillImage" />
        <dc:title />
      </cc:Work>
    </rdf:RDF>
  </metadata>
  <g
     inkscape:groupmode="layer"
     id="layer3"
     inkscape:label="Background"
     style="display:inline"
     sodipodi:insensitive="true">
    <rect
       y="-1.2269002"
       x="-0.50506151"
       height="1053.084"
       width="744.48242"
       id="rect4404"
       style="fill:#282828;fill-opacity:1;stroke:none;stroke-width:2;stroke-miterlimit:4;stroke-dasharray:none;stroke-opacity:1" />
  </g>
  <g
     inkscape:groupmode="layer"
     id="layer2"
     inkscape:label="Logo1"
     style="display:inline"
     sodipodi:insensitive="true">
    <path
       style="fill:#6948dd;fill-opacity:1;fill-rule:evenodd;stroke:#9ffc65;stroke-width:5;stroke-linecap:butt;stroke-linejoin:miter;stroke-miterlimit:4;stroke-dasharray:none;stroke-opacity:1"
       d="M 247.85388,115.39791 A 105.17531,71.246727 0 0 1 142.67857,186.64464 105.17531,71.246727 0 0 1 37.503265,115.39791 105.17531,71.246727 0 0 1 142.67857,44.151184 105.17531,71.246727 0 0 1 247.85388,115.39791 Z"
       id="path3336"
       inkscape:connector-curvature="0"
       inkscape:export-filename="/Users/bartushk/workspace/memmi/app/public/images/favicon.ico"
       inkscape:export-xdpi="14.269861"
       inkscape:export-ydpi="14.269861" />
    <path
       inkscape:connector-curvature="0"
       id="path4382"
       d="M 247.85388,115.39791 A 105.17531,71.246727 0 0 1 142.67857,186.64464 105.17531,71.246727 0 0 1 37.503265,115.39791 105.17531,71.246727 0 0 1 142.67857,44.151184 105.17531,71.246727 0 0 1 247.85388,115.39791 Z"
       style="fill:#6948dd;fill-opacity:1;fill-rule:evenodd;stroke:#a5e69d;stroke-width:5;stroke-linecap:butt;stroke-linejoin:miter;stroke-miterlimit:4;stroke-dasharray:none;stroke-opacity:1"
       inkscape:export-filename="/Users/bartushk/workspace/memmi/app/public/images/favicon.ico"
       inkscape:export-xdpi="14.269861"
       inkscape:export-ydpi="14.269861" />
    <path
       transform="scale(1,-1)"
       style="fill:#6948dd;fill-opacity:1;fill-rule:evenodd;stroke:#a5e69d;stroke-width:2;stroke-linecap:butt;stroke-linejoin:miter;stroke-miterlimit:4;stroke-dasharray:none;stroke-opacity:1"
       d="m 240.85889,-181.66042 a 30.237707,30.742785 0 0 1 -30.2377,30.74279 30.237707,30.742785 0 0 1 -30.23771,-30.74279 30.237707,30.742785 0 0 1 30.23771,-30.74278 30.237707,30.742785 0 0 1 30.2377,30.74278 z"
       id="path3338"
       inkscape:connector-curvature="0"
       inkscape:export-filename="/Users/bartushk/workspace/memmi/app/public/images/favicon.ico"
       inkscape:export-xdpi="14.269861"
       inkscape:export-ydpi="14.269861" />
    <path
       sodipodi:nodetypes="cccc"
       inkscape:connector-curvature="0"
       id="path4400"
       d="m 110.6117,45.648769 63.73604,0 -31.86802,66.766491 z"
       style="fill:#a5e69d;fill-opacity:1;fill-rule:evenodd;stroke:none;stroke-width:1px;stroke-linecap:butt;stroke-linejoin:miter;stroke-opacity:1"
       inkscape:export-filename="/Users/bartushk/workspace/memmi/app/public/images/favicon.ico"
       inkscape:export-xdpi="14.269861"
       inkscape:export-ydpi="14.269861" />
  </g>
  <g
     inkscape:groupmode="layer"
     id="layer1"
     inkscape:label="Framing"
     style="display:inline"
     sodipodi:insensitive="true">
    <rect
       y="9.2256126"
       x="29.680887"
       height="227.05196"
       width="227.05196"
       id="rect4176"
       style="fill:none;fill-opacity:1;stroke:#000000;stroke-width:4.76275969;stroke-linecap:butt;stroke-linejoin:round;stroke-miterlimit:4;stroke-dasharray:none;stroke-opacity:1"
       inkscape:export-filename="/Users/bartushk/workspace/memmi/app/public/images/favicon.ico"
       inkscape:export-xdpi="14.269861"
       inkscape:export-ydpi="14.269861" />
    <rect
       style="fill:none;fill-opacity:1;stroke:#000000;stroke-width:4.76275969;stroke-linecap:butt;stroke-linejoin:round;stroke-miterlimit:4;stroke-dasharray:none;stroke-opacity:1"
       id="rect4183"
       width="227.05196"
       height="227.05196"
       x="373.63782"
       y="9.9288683" />
  </g>
  <g
     inkscape:groupmode="layer"
     id="layer4"
     inkscape:label="Logo2"
     style="display:inline"
     sodipodi:insensitive="true">
    <path
       style="display:inline;fill:#a5e69d;fill-opacity:1;fill-rule:evenodd;stroke:#6948dd;stroke-width:5;stroke-linecap:butt;stroke-linejoin:miter;stroke-miterlimit:4;stroke-dasharray:none;stroke-opacity:1"
       d="M 592.82097,112.87253 A 105.17531,71.246727 0 0 1 487.64566,184.11926 105.17531,71.246727 0 0 1 382.47036,112.87253 105.17531,71.246727 0 0 1 487.64566,41.625803 105.17531,71.246727 0 0 1 592.82097,112.87253 Z"
       id="path4408"
       inkscape:connector-curvature="0" />
    <path
       inkscape:connector-curvature="0"
       id="path4410"
       d="m 585.82598,179.13504 a 30.237707,30.742785 0 0 0 -30.2377,-30.74279 30.237707,30.742785 0 0 0 -30.23771,30.74279 30.237707,30.742785 0 0 0 30.23771,30.74278 30.237707,30.742785 0 0 0 30.2377,-30.74278 z"
       style="display:inline;fill:#a5e69d;fill-opacity:1;fill-rule:evenodd;stroke:#6948dd;stroke-width:2;stroke-linecap:butt;stroke-linejoin:miter;stroke-miterlimit:4;stroke-dasharray:none;stroke-opacity:1" />
    <path
       style="display:inline;fill:#6948dd;fill-opacity:1;fill-rule:evenodd;stroke:none;stroke-width:1px;stroke-linecap:butt;stroke-linejoin:miter;stroke-opacity:1"
       d="m 455.57879,43.123388 63.73604,0 -31.86802,66.766492 z"
       id="path4412"
       inkscape:connector-curvature="0"
       sodipodi:nodetypes="cccc" />
  </g>
  <g
     inkscape:groupmode="layer"
     id="layer5"
     inkscape:label="Logo3" />
</svg>
